<svg width="371" height="57" viewBox="0 0 371 57" fill="none" xmlns="http://www.w3.org/2000/svg">
<path d="M44.669 3.63636V56H33.9304L13.0923 25.7784H12.7599V56H0.103693V3.63636H10.9957L31.6037 33.8068H32.0384V3.63636H44.669ZM52.6271 56V3.63636H88.3715V13.9148H65.2834V24.6534H86.0959V34.9574H65.2834V56H52.6271ZM93.0312 13.9148V3.63636H137.29V13.9148H121.412V56H108.935V13.9148H93.0312ZM172.414 28.7188L160.934 29.0256C160.815 28.2074 160.491 27.483 159.962 26.8523C159.434 26.2045 158.744 25.7017 157.891 25.3438C157.056 24.9688 156.085 24.7812 154.977 24.7812C153.528 24.7812 152.292 25.071 151.269 25.6506C150.263 26.2301 149.769 27.0142 149.786 28.0028C149.769 28.7699 150.076 29.4347 150.707 29.9972C151.354 30.5597 152.505 31.0114 154.158 31.3523L161.727 32.7841C165.647 33.5341 168.562 34.7784 170.471 36.517C172.397 38.2557 173.369 40.5568 173.386 43.4205C173.369 46.1136 172.567 48.4574 170.982 50.4517C169.414 52.446 167.266 53.9972 164.539 55.1051C161.812 56.196 158.692 56.7415 155.181 56.7415C149.573 56.7415 145.15 55.5909 141.911 53.2898C138.69 50.9716 136.849 47.8693 136.388 43.983L148.738 43.6761C149.011 45.108 149.718 46.1989 150.86 46.9489C152.002 47.6989 153.46 48.0739 155.232 48.0739C156.835 48.0739 158.138 47.7756 159.144 47.179C160.15 46.5824 160.661 45.7898 160.678 44.8011C160.661 43.9148 160.269 43.2074 159.502 42.679C158.735 42.1335 157.533 41.7074 155.897 41.4006L149.045 40.0966C145.107 39.3807 142.175 38.0597 140.249 36.1335C138.323 34.1903 137.369 31.7188 137.386 28.7188C137.369 26.0938 138.067 23.8523 139.482 21.9943C140.897 20.1193 142.908 18.6875 145.516 17.6989C148.124 16.7102 151.201 16.2159 154.746 16.2159C160.065 16.2159 164.258 17.3324 167.326 19.5653C170.394 21.7812 172.09 24.8324 172.414 28.7188Z" fill="#04D7A4"/>
<path d="M179.541 56V3.63636H201.172C205.092 3.63636 208.476 4.40341 211.322 5.9375C214.186 7.45454 216.393 9.5767 217.945 12.304C219.496 15.0142 220.271 18.1676 220.271 21.7642C220.271 25.3778 219.479 28.5398 217.893 31.25C216.325 33.9432 214.084 36.0312 211.169 37.5142C208.254 38.9972 204.794 39.7386 200.788 39.7386H187.442V29.767H198.436C200.345 29.767 201.939 29.4347 203.217 28.7699C204.513 28.1051 205.493 27.1761 206.158 25.983C206.822 24.7727 207.155 23.3665 207.155 21.7642C207.155 20.1449 206.822 18.7472 206.158 17.571C205.493 16.3778 204.513 15.4574 203.217 14.8097C201.922 14.1619 200.328 13.8381 198.436 13.8381H192.197V56H179.541ZM244.094 56.7415C239.987 56.7415 236.441 55.9318 233.458 54.3125C230.492 52.6761 228.208 50.3494 226.606 47.3324C225.021 44.2983 224.228 40.6932 224.228 36.517C224.228 32.4602 225.029 28.9148 226.631 25.8807C228.234 22.8295 230.492 20.4602 233.407 18.7727C236.322 17.0682 239.756 16.2159 243.711 16.2159C246.506 16.2159 249.063 16.6506 251.381 17.5199C253.7 18.3892 255.702 19.6761 257.39 21.3807C259.077 23.0852 260.39 25.1903 261.327 27.696C262.265 30.1847 262.734 33.0398 262.734 36.2614V39.3807H228.6V32.1193H251.1C251.083 30.7898 250.768 29.6051 250.154 28.5653C249.54 27.5256 248.697 26.7159 247.623 26.1364C246.566 25.5398 245.347 25.2415 243.967 25.2415C242.569 25.2415 241.316 25.5568 240.208 26.1875C239.1 26.8011 238.222 27.6449 237.575 28.7188C236.927 29.7756 236.586 30.9773 236.552 32.3239V39.7131C236.552 41.3153 236.867 42.7216 237.498 43.9318C238.129 45.125 239.023 46.054 240.183 46.7188C241.342 47.3835 242.722 47.7159 244.325 47.7159C245.433 47.7159 246.438 47.5625 247.342 47.2557C248.245 46.9489 249.021 46.4972 249.668 45.9006C250.316 45.304 250.802 44.571 251.126 43.7017L262.606 44.0341C262.129 46.608 261.08 48.8494 259.461 50.7585C257.859 52.6506 255.754 54.125 253.146 55.1818C250.538 56.2216 247.521 56.7415 244.094 56.7415ZM283.463 56.5625C280.565 56.5625 277.932 55.8125 275.562 54.3125C273.193 52.8125 271.301 50.5625 269.886 47.5625C268.472 44.5625 267.764 40.8381 267.764 36.3892C267.764 31.7699 268.497 27.9687 269.963 24.9858C271.429 22.0028 273.347 19.7955 275.716 18.3636C278.102 16.9318 280.668 16.2159 283.412 16.2159C285.474 16.2159 287.239 16.5739 288.705 17.2898C290.17 17.9886 291.381 18.892 292.335 20C293.29 21.108 294.014 22.2585 294.509 23.4517H294.764V3.63636H307.267V56H294.892V49.6335H294.509C293.98 50.8438 293.23 51.9773 292.259 53.0341C291.287 54.0909 290.068 54.9432 288.602 55.5909C287.153 56.2386 285.44 56.5625 283.463 56.5625ZM287.81 46.821C289.327 46.821 290.622 46.3949 291.696 45.5426C292.77 44.6733 293.597 43.4545 294.176 41.8864C294.756 40.3182 295.045 38.4773 295.045 36.3636C295.045 34.2159 294.756 32.3665 294.176 30.8153C293.614 29.2642 292.787 28.071 291.696 27.2358C290.622 26.4006 289.327 25.983 287.81 25.983C286.259 25.983 284.946 26.4091 283.872 27.2614C282.798 28.1136 281.98 29.3153 281.418 30.8665C280.872 32.4176 280.599 34.25 280.599 36.3636C280.599 38.4773 280.881 40.3182 281.443 41.8864C282.006 43.4545 282.815 44.6733 283.872 45.5426C284.946 46.3949 286.259 46.821 287.81 46.821ZM315.174 56V16.7273H327.677V56H315.174ZM321.438 12.1506C319.683 12.1506 318.174 11.571 316.913 10.4119C315.651 9.23579 315.021 7.82102 315.021 6.16761C315.021 4.53125 315.651 3.13352 316.913 1.97443C318.174 0.798293 319.683 0.210224 321.438 0.210224C323.211 0.210224 324.719 0.798293 325.964 1.97443C327.225 3.13352 327.856 4.53125 327.856 6.16761C327.856 7.82102 327.225 9.23579 325.964 10.4119C324.719 11.571 323.211 12.1506 321.438 12.1506ZM346.706 56.6648C344.2 56.6648 341.976 56.2472 340.033 55.4119C338.107 54.5597 336.581 53.2812 335.456 51.5767C334.348 49.8551 333.794 47.6989 333.794 45.108C333.794 42.9261 334.178 41.0852 334.945 39.5852C335.712 38.0852 336.768 36.8665 338.115 35.929C339.462 34.9915 341.013 34.2841 342.768 33.8068C344.524 33.3125 346.399 32.9801 348.393 32.8097C350.626 32.6051 352.425 32.392 353.788 32.1705C355.152 31.9318 356.141 31.5994 356.754 31.1733C357.385 30.7301 357.7 30.108 357.7 29.3068V29.179C357.7 27.8665 357.249 26.8523 356.345 26.1364C355.442 25.4205 354.223 25.0625 352.689 25.0625C351.036 25.0625 349.706 25.4205 348.7 26.1364C347.695 26.8523 347.055 27.8409 346.783 29.1023L335.251 28.6932C335.592 26.3068 336.47 24.1761 337.885 22.3011C339.317 20.4091 341.277 18.9261 343.766 17.8523C346.271 16.7614 349.28 16.2159 352.791 16.2159C355.297 16.2159 357.607 16.5142 359.72 17.1108C361.834 17.6903 363.675 18.5426 365.243 19.6676C366.811 20.7756 368.021 22.1392 368.874 23.7585C369.743 25.3778 370.178 27.2273 370.178 29.3068V56H358.416V50.5284H358.109C357.411 51.858 356.516 52.983 355.425 53.9034C354.351 54.8239 353.081 55.5142 351.615 55.9744C350.166 56.4347 348.53 56.6648 346.706 56.6648ZM350.567 48.483C351.913 48.483 353.124 48.2102 354.197 47.6648C355.288 47.1193 356.158 46.3693 356.805 45.4148C357.453 44.4432 357.777 43.3182 357.777 42.0398V38.3068C357.419 38.4943 356.984 38.6648 356.473 38.8182C355.979 38.9716 355.433 39.1165 354.837 39.2528C354.24 39.3892 353.626 39.5085 352.996 39.6108C352.365 39.7131 351.76 39.8068 351.18 39.892C350.004 40.0795 348.999 40.3693 348.163 40.7614C347.345 41.1534 346.714 41.6648 346.271 42.2955C345.845 42.9091 345.632 43.642 345.632 44.4943C345.632 45.7898 346.092 46.7784 347.013 47.4602C347.95 48.142 349.135 48.483 350.567 48.483Z" fill="black"/>
</svg>
